<svg xmlns="http://www.w3.org/2000/svg" width="28" height="20" viewBox="0 0 28 20" fill="none"><path d="M5.49052 0.0627403C3.42243 0.453667 1.64041 1.78637 0.710668 3.63439C0.192156 4.67094 -0.0462409 5.76079 0.00739833 6.88026C0.096797 8.62166 0.764307 10.1084 1.99801 11.2989C2.8324 12.1104 3.69658 12.6139 4.75745 12.9159C5.36536 13.0877 5.3594 13.064 4.94221 13.9229C4.38197 15.066 3.61911 16.2151 2.6834 17.3287C2.08145 18.0454 1.94437 18.3948 2.07549 18.9338C2.22449 19.5558 2.78472 20 3.42243 20C3.98862 20 5.63952 19.3721 6.8315 18.6969C10.5564 16.5942 12.7259 13.1943 13.2563 8.64536C13.3874 7.53773 13.3457 5.83187 13.1728 5.19217C12.6007 3.05984 11.2359 1.38952 9.37638 0.536591C8.55987 0.163433 7.946 0.033123 6.87322 0.00350761C6.22955 -0.00833893 5.78255 0.00943184 5.49052 0.0627403ZM7.77912 1.99368C8.64927 2.20099 9.44194 2.66892 10.0916 3.36785C10.5922 3.90685 10.9438 4.49916 11.2001 5.23956L11.4028 5.8141V7.05796C11.4028 8.5802 11.2836 9.4509 10.8902 10.8073C10.0677 13.6386 8.16652 15.9308 5.57992 17.2221C5.25212 17.382 5.00776 17.4827 5.03756 17.4412C5.0614 17.3997 5.29384 17.0562 5.55012 16.6771C6.05075 15.9249 6.73018 14.6633 7.01625 13.9466C7.34405 13.1469 7.24869 12.4421 6.7421 11.8853C6.42622 11.5358 6.08651 11.3522 5.52032 11.2101C4.0661 10.8547 2.74896 9.69375 2.21853 8.29589C1.59869 6.65518 1.90265 4.90194 3.04695 3.52777C3.63699 2.82292 4.62633 2.21284 5.55012 1.98776C6.15803 1.83968 7.14737 1.83968 7.77912 1.99368Z" fill="white"></path><path d="M20.0064 0.115267C17.2673 0.68932 15.1607 2.86125 14.7251 5.57173C14.6057 6.29966 14.6774 7.64898 14.8683 8.33547C15.1846 9.45991 15.7814 10.466 16.6109 11.2827C17.4105 12.0757 18.3474 12.6202 19.4216 12.9279C19.7081 13.0108 19.9468 13.0877 19.9527 13.0936C19.9885 13.1232 19.4515 14.2417 19.171 14.7329C18.7413 15.4845 18.1028 16.3959 17.4762 17.1534C16.8376 17.9287 16.7004 18.1891 16.6944 18.627C16.6944 19.0058 16.7899 19.2543 17.0584 19.5561C17.321 19.8461 17.6552 20 18.061 20C18.7592 20 20.9195 19.1005 22.1846 18.2838C23.7362 17.2777 25.067 15.9402 26.0158 14.4252C26.9826 12.8865 27.6569 10.8447 27.9195 8.69648C28.0269 7.84427 28.0269 6.11028 27.9195 5.58949C27.3526 2.74881 25.2401 0.594631 22.5248 0.0856762C21.8624 -0.0386028 20.6868 -0.0267677 20.0064 0.115267ZM22.4591 2.00905C24.2972 2.47066 25.6936 4.0212 26.0397 5.99192C26.2605 7.22879 25.9979 9.46583 25.431 11.1761C24.7686 13.1824 23.5452 14.9223 21.9161 16.1651C21.2537 16.68 19.6782 17.6032 19.6782 17.4848C19.6782 17.4671 19.8215 17.2481 19.9945 16.9936C20.6629 16.0408 21.5461 14.3956 21.7908 13.6499C22.0414 12.8983 21.7371 12.0402 21.0627 11.5727C20.9314 11.4839 20.5495 11.33 20.2093 11.2353C18.7294 10.8092 17.6552 9.93927 17.0226 8.65505C16.4318 7.44776 16.4139 5.89723 16.9868 4.64851C17.5896 3.32878 18.8905 2.28128 20.2989 1.97946C20.8718 1.85518 21.9042 1.86702 22.4591 2.00905Z" fill="white"></path></svg>