<svg xmlns="http://www.w3.org/2000/svg" xmlns:xlink="http://www.w3.org/1999/xlink" width="170" zoomAndPan="magnify" viewBox="0 0 127.5 37.5" height="50" preserveAspectRatio="xMidYMid meet" version="1.0"><defs><g/><clipPath id="6def344d96"><path d="M 10 31 L 28 31 L 28 33.167969 L 10 33.167969 Z M 10 31 " clip-rule="nonzero"/></clipPath><clipPath id="c619bf1ea1"><path d="M 1.515625 3 L 36 3 L 36 33 L 1.515625 33 Z M 1.515625 3 " clip-rule="nonzero"/></clipPath></defs><g clip-path="url(#6def344d96)"><path fill="#e7e7e7" d="M 18.953125 31.078125 C 23.746094 31.078125 27.632812 31.625 27.632812 32.300781 C 27.632812 32.980469 23.746094 33.527344 18.953125 33.527344 C 14.160156 33.527344 10.273438 32.980469 10.273438 32.300781 C 10.273438 31.625 14.160156 31.078125 18.953125 31.078125 Z M 18.953125 31.078125 " fill-opacity="1" fill-rule="evenodd"/></g><path fill="#ffffff" d="M 23.125 6.460938 C 23.195312 6.496094 23.265625 6.53125 23.335938 6.5625 C 23.265625 6.53125 23.195312 6.496094 23.125 6.460938 Z M 23.125 6.460938 " fill-opacity="1" fill-rule="evenodd"/><path fill="#ffffff" d="M 22.460938 6.179688 C 22.683594 6.265625 22.90625 6.359375 23.121094 6.460938 C 22.90625 6.359375 22.683594 6.265625 22.460938 6.179688 Z M 22.460938 6.179688 " fill-opacity="1" fill-rule="evenodd"/><g clip-path="url(#c619bf1ea1)"><path fill="#e30d16" d="M 6.515625 14.09375 C 6.558594 14.085938 6.597656 14.082031 6.640625 14.074219 Z M 6.386719 14.117188 C 6.429688 14.109375 6.46875 14.101562 6.511719 14.09375 Z M 8.871094 14.042969 L 30.875 14.042969 L 30.875 14.070312 C 33.542969 14.363281 35.648438 17.136719 35.648438 20.488281 L 35.648438 25.007812 C 35.648438 26.066406 34.941406 26.933594 34.078125 26.933594 L 32.90625 26.933594 L 32.90625 29.117188 C 32.90625 29.9375 32.214844 30.613281 31.367188 30.613281 L 29.269531 30.613281 C 28.425781 30.613281 27.734375 29.9375 27.734375 29.117188 L 27.734375 26.933594 L 24.539062 26.933594 L 24.085938 27.375 L 18.859375 32.667969 C 17.234375 31.0625 15.605469 29.460938 13.96875 27.867188 L 13.011719 26.933594 L 9.847656 26.933594 L 9.847656 29.117188 C 9.847656 29.9375 9.15625 30.613281 8.308594 30.613281 L 6.214844 30.613281 C 5.367188 30.613281 4.675781 29.9375 4.675781 29.117188 L 4.675781 26.933594 L 3.5 26.933594 C 2.640625 26.933594 1.933594 26.066406 1.933594 25.007812 L 1.933594 20.488281 C 1.933594 17.277344 3.867188 14.597656 6.371094 14.117188 L 6.351562 14.121094 C 6.628906 11.4375 7.828125 8.824219 9.941406 6.765625 C 13.320312 3.480469 18.148438 2.472656 22.421875 3.734375 L 22.421875 6.164062 C 21.296875 5.738281 20.070312 5.503906 18.792969 5.503906 C 13.683594 5.503906 9.472656 9.230469 8.871094 14.042969 Z M 8.871094 14.042969 " fill-opacity="1" fill-rule="evenodd"/></g><path fill="#ffffff" d="M 9.519531 18.097656 C 11.183594 18.097656 12.535156 19.414062 12.535156 21.03125 C 12.535156 22.652344 11.183594 23.964844 9.519531 23.964844 C 7.855469 23.964844 6.503906 22.652344 6.503906 21.03125 C 6.503906 19.414062 7.855469 18.097656 9.519531 18.097656 Z M 28.0625 18.097656 C 29.726562 18.097656 31.078125 19.414062 31.078125 21.03125 C 31.078125 22.652344 29.726562 23.964844 28.0625 23.964844 C 26.398438 23.964844 25.046875 22.652344 25.046875 21.03125 C 25.046875 19.414062 26.398438 18.097656 28.0625 18.097656 Z M 28.0625 18.097656 " fill-opacity="1" fill-rule="evenodd"/><path fill="#1b1b1b" d="M 27.601562 6.761719 C 26.71875 5.90625 25.742188 5.203125 24.699219 4.65625 C 24.324219 4.460938 23.945312 4.285156 23.554688 4.128906 L 23.554688 6.675781 C 23.953125 6.886719 24.335938 7.125 24.699219 7.382812 C 26.230469 8.476562 27.425781 9.984375 28.117188 11.738281 C 28.261719 12.101562 28.382812 12.46875 28.480469 12.851562 L 30.992188 12.851562 C 30.910156 12.476562 30.8125 12.105469 30.695312 11.738281 C 30.113281 9.917969 29.082031 8.203125 27.601562 6.761719 Z M 27.601562 6.761719 " fill-opacity="1" fill-rule="evenodd"/><path fill="#1b1b1b" d="M 23.78125 9.15625 C 24.753906 9.15625 25.542969 9.925781 25.542969 10.871094 C 25.542969 11.820312 24.753906 12.585938 23.78125 12.585938 C 22.804688 12.585938 22.015625 11.820312 22.015625 10.871094 C 22.015625 9.925781 22.804688 9.15625 23.78125 9.15625 Z M 23.78125 9.15625 " fill-opacity="1" fill-rule="evenodd"/><g fill="#000000" fill-opacity="1"><g transform="translate(37.240931, 24.673299)"><g><path d="M 6.5 -16.09375 L 4.265625 -16.4375 L 4.265625 -17.375 L 12.546875 -17.375 L 12.546875 -16.4375 L 10.578125 -16.09375 L 10.578125 -5.59375 C 10.578125 -3.71875 10.054688 -2.269531 9.015625 -1.25 C 7.984375 -0.238281 6.507812 0.265625 4.59375 0.265625 C 3.9375 0.265625 3.296875 0.222656 2.671875 0.140625 C 2.046875 0.0664062 1.546875 -0.0195312 1.171875 -0.125 L 1.171875 -4.0625 L 2.328125 -4.0625 L 2.71875 -1.75 C 2.882812 -1.550781 3.117188 -1.394531 3.421875 -1.28125 C 3.722656 -1.164062 4.054688 -1.109375 4.421875 -1.109375 C 5.015625 -1.109375 5.507812 -1.316406 5.90625 -1.734375 C 6.300781 -2.148438 6.5 -2.765625 6.5 -3.578125 Z M 6.5 -16.09375 "/></g></g></g><g fill="#000000" fill-opacity="1"><g transform="translate(50.511399, 24.673299)"><g><path d="M 13.578125 -8.6875 C 13.578125 -11.1875 13.117188 -13.019531 12.203125 -14.1875 C 11.285156 -15.363281 9.789062 -15.953125 7.71875 -15.953125 L 6.765625 -15.953125 L 6.765625 -1.484375 C 7.597656 -1.410156 8.347656 -1.375 9.015625 -1.375 C 10.140625 -1.375 11.03125 -1.613281 11.6875 -2.09375 C 12.34375 -2.582031 12.820312 -3.34375 13.125 -4.375 C 13.425781 -5.40625 13.578125 -6.84375 13.578125 -8.6875 Z M 8.71875 -17.375 C 11.84375 -17.375 14.148438 -16.664062 15.640625 -15.25 C 17.128906 -13.84375 17.875 -11.6875 17.875 -8.78125 C 17.875 -5.800781 17.160156 -3.582031 15.734375 -2.125 C 14.304688 -0.675781 12.148438 0.046875 9.265625 0.046875 L 3.453125 0 L 0.46875 0 L 0.46875 -0.953125 L 2.703125 -1.296875 L 2.703125 -16.09375 L 0.46875 -16.4375 L 0.46875 -17.375 Z M 8.71875 -17.375 "/></g></g></g><g fill="#000000" fill-opacity="1"><g transform="translate(69.678417, 24.673299)"><g><path d="M 5.96875 -9.65625 C 6.90625 -10.695312 7.742188 -11.441406 8.484375 -11.890625 C 9.222656 -12.347656 9.898438 -12.578125 10.515625 -12.578125 L 11.21875 -12.578125 L 11.21875 -8.125 L 10.484375 -8.125 L 9.71875 -9.765625 C 9.175781 -9.765625 8.554688 -9.644531 7.859375 -9.40625 C 7.171875 -9.164062 6.566406 -8.882812 6.046875 -8.5625 L 6.046875 -1.171875 L 8 -0.859375 L 8 0 L 0.71875 0 L 0.71875 -0.859375 L 2.296875 -1.171875 L 2.296875 -11.015625 L 0.71875 -11.328125 L 0.71875 -12.1875 L 5.828125 -12.1875 Z M 5.96875 -9.65625 "/></g></g></g><g fill="#000000" fill-opacity="1"><g transform="translate(81.458554, 24.673299)"><g><path d="M 5.65625 -1.171875 L 6.984375 -0.859375 L 6.984375 0 L 0.578125 0 L 0.578125 -0.859375 L 1.90625 -1.171875 L 1.90625 -11.015625 L 0.65625 -11.328125 L 0.65625 -12.1875 L 5.65625 -12.1875 Z M 1.78125 -16.4375 C 1.78125 -17 1.972656 -17.46875 2.359375 -17.84375 C 2.753906 -18.226562 3.222656 -18.421875 3.765625 -18.421875 C 4.328125 -18.421875 4.796875 -18.226562 5.171875 -17.84375 C 5.554688 -17.457031 5.75 -16.988281 5.75 -16.4375 C 5.75 -15.894531 5.554688 -15.425781 5.171875 -15.03125 C 4.796875 -14.632812 4.328125 -14.4375 3.765625 -14.4375 C 3.210938 -14.4375 2.742188 -14.628906 2.359375 -15.015625 C 1.972656 -15.398438 1.78125 -15.875 1.78125 -16.4375 Z M 1.78125 -16.4375 "/></g></g></g><g fill="#000000" fill-opacity="1"><g transform="translate(88.832482, 24.673299)"><g><path d="M 7.515625 0.265625 L 5.953125 0.265625 L 0.859375 -11.015625 L 0 -11.328125 L 0 -12.1875 L 6.234375 -12.1875 L 6.234375 -11.328125 L 4.78125 -10.984375 L 7.90625 -4.046875 L 10.71875 -11.015625 L 9.296875 -11.328125 L 9.296875 -12.1875 L 13.28125 -12.1875 L 13.28125 -11.328125 L 12.390625 -11.0625 Z M 7.515625 0.265625 "/></g></g></g><g fill="#000000" fill-opacity="1"><g transform="translate(102.102949, 24.673299)"><g><path d="M 6.40625 -12.484375 C 8.050781 -12.484375 9.242188 -12.039062 9.984375 -11.15625 C 10.722656 -10.28125 11.09375 -8.910156 11.09375 -7.046875 L 11.09375 -5.984375 L 4.703125 -5.984375 L 4.703125 -5.78125 C 4.703125 -4.488281 4.804688 -3.570312 5.015625 -3.03125 C 5.222656 -2.488281 5.5625 -2.070312 6.03125 -1.78125 C 6.5 -1.5 7.140625 -1.359375 7.953125 -1.359375 C 8.710938 -1.359375 9.671875 -1.484375 10.828125 -1.734375 L 10.828125 -0.734375 C 10.347656 -0.453125 9.726562 -0.21875 8.96875 -0.03125 C 8.21875 0.15625 7.484375 0.25 6.765625 0.25 C 4.765625 0.25 3.285156 -0.269531 2.328125 -1.3125 C 1.378906 -2.351562 0.90625 -3.96875 0.90625 -6.15625 C 0.90625 -8.28125 1.359375 -9.863281 2.265625 -10.90625 C 3.179688 -11.957031 4.5625 -12.484375 6.40625 -12.484375 Z M 6.265625 -11.171875 C 5.742188 -11.171875 5.351562 -10.890625 5.09375 -10.328125 C 4.84375 -9.765625 4.71875 -8.769531 4.71875 -7.34375 L 7.546875 -7.34375 C 7.546875 -8.507812 7.503906 -9.328125 7.421875 -9.796875 C 7.347656 -10.265625 7.21875 -10.609375 7.03125 -10.828125 C 6.84375 -11.054688 6.585938 -11.171875 6.265625 -11.171875 Z M 6.265625 -11.171875 "/></g></g></g><g fill="#000000" fill-opacity="1"><g transform="translate(113.883086, 24.673299)"><g><path d="M 5.96875 -9.65625 C 6.90625 -10.695312 7.742188 -11.441406 8.484375 -11.890625 C 9.222656 -12.347656 9.898438 -12.578125 10.515625 -12.578125 L 11.21875 -12.578125 L 11.21875 -8.125 L 10.484375 -8.125 L 9.71875 -9.765625 C 9.175781 -9.765625 8.554688 -9.644531 7.859375 -9.40625 C 7.171875 -9.164062 6.566406 -8.882812 6.046875 -8.5625 L 6.046875 -1.171875 L 8 -0.859375 L 8 0 L 0.71875 0 L 0.71875 -0.859375 L 2.296875 -1.171875 L 2.296875 -11.015625 L 0.71875 -11.328125 L 0.71875 -12.1875 L 5.828125 -12.1875 Z M 5.96875 -9.65625 "/></g></g></g></svg>